{"title":"Prometheus.2012.iNTERNAL.DVDRip.x264-RAWNiTRO","uid":7619258,"size":441654084,"categoryP":"video","categoryS":"movies","magnet":"?xt=urn:btih:f0568446f74a6481d1d118537cd40d9d9365b757&amp;dn=Prometheus.2012.iNTERNAL.DVDRip.x264-RAWNiTRO&amp;tr=udp%3A%2F%2Ftracker.openbittorrent.com%3A80&amp;tr=udp%3A%2F%2Fopen.demonii.com%3A1337&amp;tr=udp%3A%2F%2Ftracker.coppersurfer.tk%3A6969&amp;tr=udp%3A%2F%2Fexodus.desync.com%3A6969","seeders":0,"leechers":0,"uploader":"haloReD","files":3,"time":1347283361,"description":"             Prometheus 2012 iNTERNAL DVDRip x264-RAWNiTRO\n\nGeneral Info:\nRelease name       : Prometheus.2012.internal.dvdrip.x264-rawnitro.mp4\nFormat             : MPEG-4\nFile size          : 421 MiB\nDuration           : 1h 58mn\nOverall bit rate   : 496 Kbps\n\nVideo:\n\nFormat             : AVC\nCodec ID           : avc1\nDuration           : 1h 58mn\nBit rate           : 357 Kbps\nMaximum bit rate   : 5 908 Kbps\nWidth              : 640 pixels\nHeight             : 256 pixels\nAspect ratio       : 2.500\nChroma subsampling : 4:2:0\nBit depth          : 8 bits\nStream size        : 303 MiB (72%)\n\nAudio:\n\nFormat             : AAC\nCodec ID           : 40\nDuration           : 1h 58mn\nBit rate mode      : Variable\nBit rate           : 132.3 Kbps\nMaximum bit rate   : 199 Kbps\nChannel(s)         : 2 channels\nSampling rate      : 48.0 KHz\nCompression mode   : Lossy\nStream size        : 114 MiB (27%)\n\niMDB Info:\n\n &lt;a href=&quot;\nhttp://www.imdb.com/title/tt1446714/&quot; rel=&quot;nofollow&quot; target=&quot;_NEW&quot;&gt;\nhttp://www.imdb.com/title/tt1446714/&lt;/a&gt;\n\n\nRatings: 7.5/10 from 134,025 users   \n\nA team of explorers discover a clue to the origins of mankind on Earth, leading them on a \njourney to the darkest corners of the universe. There, they must fight a terrifying battle \nto save the future of the human race.\n\nDirector : Ridley Scott\nWriters  : Jon Spaihts, Damon Lindelof\nStars    : Noomi Rapace, Logan Marshall-Green and Michael Fassbender\n\nScreen:\n &lt;a href=&quot;\nhttp://postimg.com/84000/photo-83278.jpg&quot; rel=&quot;nofollow&quot; target=&quot;_NEW&quot;&gt;\nhttp://postimg.com/84000/photo-83278.jpg&lt;/a&gt;\n &lt;a href=&quot;\nhttp://postimg.com/84000/photo-83277.jpg&quot; rel=&quot;nofollow&quot; target=&quot;_NEW&quot;&gt;\nhttp://postimg.com/84000/photo-83277.jpg&lt;/a&gt;\n &lt;a href=&quot;\nhttp://postimg.com/84000/photo-83279.jpg&quot; rel=&quot;nofollow&quot; target=&quot;_NEW&quot;&gt;\nhttp://postimg.com/84000/photo-83279.jpg&lt;/a&gt;\n &lt;a href=&quot;\nhttp://postimg.com/84000/photo-83282.jpg&quot; rel=&quot;nofollow&quot; target=&quot;_NEW&quot;&gt;\nhttp://postimg.com/84000/photo-83282.jpg&lt;/a&gt;","torrent":{"xt":"urn:btih:f0568446f74a6481d1d118537cd40d9d9365b757","amp;dn":"Prometheus.2012.iNTERNAL.DVDRip.x264-RAWNiTRO","amp;tr":["udp%3A%2F%2Ftracker.openbittorrent.com%3A80","udp%3A%2F%2Fopen.demonii.com%3A1337","udp%3A%2F%2Ftracker.coppersurfer.tk%3A6969","udp%3A%2F%2Fexodus.desync.com%3A6969"],"infoHash":"f0568446f74a6481d1d118537cd40d9d9365b757","infoHashBuffer":{"type":"Buffer","data":[240,86,132,70,247,74,100,129,209,209,24,83,124,212,13,157,147,101,183,87]},"announce":[],"urlList":[]}}